<?xml version="1.0" standalone="no"?>
<!DOCTYPE svg PUBLIC "-//W3C//DTD SVG 20010904//EN"
 "http://www.w3.org/TR/2001/REC-SVG-20010904/DTD/svg10.dtd">
<svg version="1.0" xmlns="http://www.w3.org/2000/svg"
 width="700.000000pt" height="700.000000pt" viewBox="0 0 700.000000 700.000000"
 preserveAspectRatio="xMidYMid meet">
<metadata>
Created by potrace 1.11, written by Peter Selinger 2001-2013
</metadata>
<g transform="translate(0.000000,700.000000) scale(0.100000,-0.100000)"
fill="#000000" stroke="none">
<path d="M2087 6124 c-1 -1 -32 -5 -69 -8 -181 -18 -329 -62 -506 -148 -80
-39 -206 -118 -267 -168 -39 -32 -213 -206 -245 -245 -33 -41 -140 -201 -140
-210 0 -4 -13 -29 -28 -54 -52 -86 -127 -305 -148 -431 -2 -14 -6 -34 -9 -45
-22 -104 -23 -479 0 -594 2 -13 7 -49 11 -80 22 -195 107 -498 206 -731 60
-141 194 -401 211 -408 4 -2 7 -8 7 -14 0 -10 195 -307 209 -318 3 -3 26 -32
51 -65 25 -33 47 -62 50 -65 3 -3 22 -26 43 -52 21 -26 43 -53 50 -60 7 -7 41
-47 77 -88 217 -252 647 -643 1000 -910 47 -36 87 -67 90 -70 11 -12 258 -190
410 -295 47 -32 107 -74 134 -93 86 -60 192 -96 281 -96 43 0 126 19 170 39
70 30 618 413 740 517 11 9 59 47 106 85 154 122 233 187 264 214 17 15 41 37
55 49 135 114 457 430 562 550 31 36 66 76 79 90 12 14 54 66 94 115 373 468
613 955 709 1440 25 122 25 124 32 184 3 31 8 65 10 76 15 77 21 386 10 485
-30 267 -114 505 -251 716 -217 332 -563 571 -946 655 -535 116 -1086 -69
-1501 -506 -26 -27 -67 -73 -90 -102 -24 -29 -46 -51 -49 -50 -4 1 -23 22 -44
47 -251 305 -581 520 -923 601 -83 20 -96 22 -202 35 -49 6 -238 12 -243 8z
m258 -449 c271 -54 480 -169 682 -376 70 -72 211 -245 224 -275 2 -5 19 -35
38 -67 59 -102 140 -151 235 -142 84 9 134 51 205 172 142 245 411 499 628
593 26 11 55 24 63 29 28 15 155 50 232 64 78 15 265 16 343 2 343 -59 637
-284 796 -610 83 -172 117 -337 113 -558 -3 -197 -18 -314 -69 -537 -70 -313
-260 -704 -497 -1025 -181 -245 -473 -560 -723 -780 -55 -48 -114 -100 -131
-116 -136 -120 -496 -394 -781 -595 l-201 -142 -74 51 c-40 27 -100 69 -133
92 -254 175 -633 467 -835 644 -141 124 -175 156 -340 321 -284 283 -441 481
-658 825 -15 25 -156 308 -176 355 -68 160 -139 410 -162 570 -2 19 -7 44 -9
55 -9 42 -19 204 -19 305 0 223 33 376 119 549 160 319 465 546 800 596 79 12
271 12 330 0z"/>
</g>
</svg>
